<svg version="1" xmlns="http://www.w3.org/2000/svg" width="3194.667" height="3194.667" viewBox="0 0 2396.000000 2396.000000"><path d="M1399.1 136.5c-5.6 1.6-12.8 5.6-17.7 9.7-5.4 4.7-27.1 35.5-43.8 62.3-3.8 6-8.3 13.2-10.1 16-1.8 2.7-6.3 9.9-10 16-3.7 6-8.2 13.2-10 16-8.5 13.2-9.5 15-9.2 15.8.2.8 25.6 16.6 50.7 31.5 7.8 4.7 29.6 17.9 67 40.7 15.1 9.2 28.4 17.3 29.5 17.9 1.1.6 16.7 10.1 34.7 21.1 18 11 33.6 20.4 34.6 21 1.9 1.1 59.6 36.1 70.1 42.6 3.4 2.1 6.4 3.9 6.6 3.9.1 0 5.2 3 11.1 6.7 6 3.6 22.2 13.5 35.9 21.8 13.8 8.4 35.6 21.6 48.5 29.5 34.4 20.9 53.8 32.7 68.5 41.5 7.2 4.3 15.7 9.5 19 11.5 18.9 11.8 47.6 29 48.5 29 .6 0 1 .3 1 .7 0 .5 1 1.3 2.3 1.9 1.7.9 29.6 17.6 38.7 23.3 7.1 4.4 48.7 29.7 49.5 30.1.5.3 2.8 1.6 5 3 2.3 1.4 5 3 6 3.7 1.1.6 10.1 6.1 20 12.1 36.1 22 39.8 24.2 40.2 24.2.2 0 1.6.9 3.1 1.9 5.5 3.9 57.3 35.1 58.2 35.1.6 0 1 .3 1 .7 0 .5 1 1.3 2.3 1.9 1.2.6 10.5 6.2 20.7 12.4s32.2 19.6 49 29.8c16.8 10.1 31.6 19.1 33 20 1.4.9 3.4 2.2 4.5 2.8 1.8 1 20.6 12.4 55 33.3 6.6 4.1 18.4 11.2 26.3 16 7.8 4.7 17.3 10.5 21 12.8 3.7 2.3 7.3 4.6 8.1 4.9.7.4 13 7.8 27.2 16.5 18.1 11 26.1 15.4 26.7 14.5.5-.6 7.8-12.4 16.2-26.1 8.4-13.8 16.8-27.3 18.5-30 8.7-13.8 24.7-41 28.5-48.5 7.8-15.5 10.2-23.2 10.6-35.1.5-14.1-1.7-20.9-10.5-31.9-8.9-11.1-20.3-19.7-49.1-37-5.8-3.5-12.1-7.3-14-8.5-4.4-2.8-49.8-30.4-52.5-31.9-1.1-.6-3.1-1.8-4.5-2.7-12.3-7.8-39.2-23.9-40-23.9-.6 0-1-.4-1-.9s-.8-1.1-1.7-1.4c-1-.3-6.1-3.3-11.3-6.6-8.2-5.1-33.1-20.4-43.6-26.6-1.8-1.1-12.2-7.4-23-14s-20.8-12.7-22.3-13.5c-1.4-.8-9.9-6-18.9-11.5-9-5.5-17.7-10.8-19.5-11.8-1.7-1.1-15.5-9.4-30.7-18.7-64.7-39.3-93.5-56.8-109.3-66.4-9.2-5.5-17.8-10.8-19.1-11.6-1.3-.8-5.5-3.3-9.3-5.6-12.2-7.3-53.7-32.5-56.8-34.5-3.2-2.1-58.9-35.9-64-38.9-1.6-1-16.5-10-33-20-16.5-10.1-33.1-20.2-36.8-22.4-3.8-2.3-8.1-4.8-9.5-5.7-12.1-7.4-54.9-33.4-77.7-47.2-15.4-9.4-32.9-20-39-23.7-6-3.7-18.4-11.2-27.5-16.7-9.1-5.5-26.2-15.9-38-23-11.9-7.2-23-13.9-24.7-14.9-1.7-1.1-7.6-4.6-13-7.9-5.4-3.3-10.7-6.5-11.8-7.1-1.1-.6-8.3-4.9-16-9.6-27.3-16.5-38-20.8-53.5-21.4-6.5-.3-11.2.1-14.9 1.1zM1229 389.3c-6.9 11.4-13.4 22.4-14.5 24.2-1.1 1.9-4.2 7.1-7 11.7-2.7 4.6-5.5 9.2-6.1 10.3-.6 1.1-5.4 9-10.6 17.5-5.2 8.6-9.7 16.2-10.1 17-.4.8-3.8 6.6-7.7 12.9-3.8 6.2-7 11.8-7 12.2 0 .5-.4.9-1 .9-.5 0-1 .4-1 .9s-10.3 18.1-23 39.1c-12.6 21-23 38.6-23 39.1s-.4.9-1 .9c-.5 0-1 .4-1 .8 0 .5-26.6 45.2-59.1 99.3-32.5 54.1-59.9 99.7-60.9 101.4-.9 1.6-6.3 10.6-12 20-5.7 9.3-11.1 18.3-12 20-1 1.6-17.7 29.6-37.3 62.1-44.1 73.4-46.6 78.3-47.2 90.4-.6 13.1 8.4 20.4 37.2 29.9 13.4 4.5 66.5 20.1 88.8 26.1 4.4 1.2 11.2 3.1 15 4.2 3.9 1.1 9.3 2.6 12 3.3 7.9 2.1 47.6 13.4 51 14.5 1.6.6 7.5 2.4 13 4.1 12.5 3.8 46.3 14.8 49 15.9 1.1.4 9.7 3.6 19 7 29 10.7 53.6 21.6 91.3 40.7 20 10.1 39.1 19.8 42.5 21.7 3.4 1.8 10.9 5.8 16.7 8.9 5.8 3 13.9 7.4 18 9.7 4.1 2.2 9.1 4.9 11 5.8 1.9.9 3.7 1.9 4 2.2.3.3 2.1 1.3 4 2.4 5.8 3 17.1 9.3 33 18.3 62 35.2 126.3 76.3 180.5 115.2 12.7 9.1 34.4 25.2 41 30.3 6.9 5.4 42.3 33.4 43.2 34.2.6.6 3 2.7 5.4 4.6 5 4.1 18.2 15.2 18.9 16 .3.3 3.7 3.2 7.5 6.5 3.9 3.3 9 7.8 11.5 10.1 2.5 2.2 9.9 9 16.5 14.9 19.9 18.1 76.3 75.1 90.6 91.6 1.1 1.3 3 3.5 4.2 4.9 2.7 3 14.3 16.4 20.7 24 2.6 3 9.3 11.1 14.9 18 27.5 34 40.2 40.5 55.6 28.3 7.9-6.2 13.6-14.7 48.2-72.3 14.7-24.6 64.8-107.8 75-124.8 1-1.6 3.6-6 5.8-9.7 2.2-3.7 4.7-7.9 5.6-9.3 4.6-7.7 51.5-85.7 71.3-118.7 12.6-20.9 40.3-66.9 61.5-102.2 21.2-35.3 39.1-65 39.6-66 .6-1 3.3-5.6 6.1-10.3 5.3-8.7 6.4-10.5 12.3-20.6 1.9-3.3 4.2-7 5.2-8.4 1.7-2.5 25.5-42.5 29-48.7l1.8-3.2-4.2-2.4c-2.3-1.3-13.6-8.1-25.2-15.2-11.5-7-22.2-13.5-23.7-14.4-1.5-.9-16-9.7-32.3-19.6-16.2-9.9-31-18.9-32.9-20-7.9-4.7-16.8-10.1-27.1-16.4-6-3.6-16.8-10.2-24-14.6-7.1-4.3-21.1-12.8-31-18.8-9.9-6.1-19.3-11.8-21-12.7-1.6-1-8.2-4.9-14.5-8.8-6.3-3.9-15.5-9.5-20.5-12.5-4.9-2.9-20.7-12.5-35-21.2-24.7-15.1-37.5-22.8-41.3-25-.9-.6-4.6-2.8-8.2-5-3.6-2.2-7.3-4.5-8.2-5-1-.6-15.2-9.1-31.5-19.1-92-55.9-107.4-65.3-117.3-71.2-3.6-2.1-14.8-9-25-15.2-10.2-6.2-21.6-13.2-25.5-15.5-6.7-4-58.3-35.3-78.5-47.6-5.2-3.2-12.4-7.6-16-9.7-3.6-2.1-30.6-18.5-60-36.4-47.5-28.8-147.5-89.6-177.5-107.8-6-3.6-22.6-13.7-36.8-22.3-14.2-8.6-26.2-15.7-26.8-15.7-.5 0-.9-.4-.9-.9s-.8-1.1-1.7-1.4c-1-.3-6.1-3.3-11.3-6.6-5.2-3.3-10.6-6.6-12-7.4-1.4-.8-10.8-6.5-21-12.7-10.2-6.2-21.6-13.2-25.5-15.5l-7-4.1-12.5 20.9zm392 405.3c33.4 5.2 59.3 19.2 82.5 44.5 14 15.3 25.9 40.3 29.9 62.9 1.5 8.6 1.7 38.5.3 44-.4 1.4-1 4.1-1.3 6-2 11.7-8.9 29.6-16.1 41.8-18.3 31.1-48.4 53.5-82.8 61.5-10.3 2.4-12.8 2.7-26.5 3.2-23.2.7-45.7-4.5-65.7-15.2-44.9-23.9-72.2-71.2-70.8-122.3.2-6.9.6-13.6.9-15 .3-1.3.8-4.2 1.1-6.3 1.7-10.9 9.1-30.8 15.7-42 20.4-34.7 57.1-59.1 95.3-63.4 2.8-.3 5.2-.7 5.4-.9.9-.8 24.6 0 32.1 1.2zM1213.4 1272.7c-3.7 6-8.2 13-9.9 15.8-1.8 2.7-3.8 6.1-4.5 7.5-.7 1.4-1.6 2.7-1.9 3-.3.3-1.4 1.8-2.3 3.5-1.4 2.4-17.2 28.6-20.9 34.5-3.5 5.7-14.5 24-15.9 26.5-1 1.6-16.3 27.1-34 56.5-17.8 29.4-33.1 55-34.2 56.9-5.4 9.5-32.4 46.1-47.3 64.1-23 27.8-48.5 53.2-78.5 78.3-14.7 12.3-45 33.3-62 43-30.7 17.4-56.8 29.3-85 38.7-11.5 3.9-31.3 9.7-36 10.6-1.4.3-4.7 1.1-7.5 1.9-4.9 1.4-28.5 6.1-35.4 7.1-2 .3-4.7.7-6.1.9-5.3 1-23.2 3.2-32 4-3.6.3-8.1.8-10 1-19 2.1-78.1 2.1-101 0-1.9-.2-7.1-.6-11.5-1-4.4-.3-9.1-.8-10.5-1-1.4-.2-5.4-.7-9-1-3.6-.4-7.6-.8-9-1-6.9-.9-12.8-1.7-15-2-7.3-1.1-24.8-3.7-27-4.1-5.2-.9-40.7-6.3-45-6.9-2.5-.3-7.6-1-11.5-1.5-8.7-1.2-13.5-1.8-20.2-2.5-2.9-.3-7.4-.7-10-1-10.9-1.2-45.8-.6-53.9.9-1.1.2-4.6.7-7.9 1.2-3.3.4-6.2.8-6.5.9-.3.1-2.5.5-5 .9-15.4 2.7-43.4 10.7-54.5 15.6-29.9 13.2-47.1 23.2-66.5 38.7-11 8.8-27.9 25.7-35.9 35.8-3.4 4.4-6.8 8.7-7.4 9.5-2.5 3.1-11.5 17.8-15.1 24.5-2.1 3.8-9 19.1-15.3 34-6.3 14.8-12 28.3-12.8 30-2.2 5.1-20.4 48.2-21.4 50.7-.5 1.3-1.8 4.4-2.9 6.8-1.2 2.5-3.7 8.5-5.8 13.5-2 4.9-5.6 13.7-8.1 19.5-2.5 5.8-5.1 11.8-5.8 13.5-.7 1.6-4.8 11.3-9 21.5s-8.3 19.8-9 21.5c-.8 1.6-7.2 16.9-14.3 34-7.2 17-17.2 40.9-22.2 53-5.1 12.1-12.1 29-15.6 37.5-3.6 8.5-6.9 16.4-7.4 17.5-2.8 5.8-18 42.9-17.7 43.1.3.3 17.2 3.7 24.7 5 6.5 1.2 30 5.6 34 6.4 2.5.6 5.9 1.2 7.5 1.5 1.7.3 4.1.7 5.5 1 1.4.3 3.9.8 5.5 1.1 1.7.3 7.5 1.4 13 2.4 5.5 1.1 11.2 2.1 12.7 2.4 1.5.3 6.3 1.2 10.5 2 4.3.9 8.9 1.7 10.3 2 1.4.2 6.6 1.2 11.5 2.1 12.3 2.3 11.8 2.2 23 4.4 5.5 1.1 11.9 2.2 14.1 2.6l4.2.6 2.2-6.8c6.6-20.2 21-53.1 32.7-74.8 6.3-11.6 15.4-26.8 18.5-30.6 1.5-2 2.8-4 2.8-4.3 0-1.9 20.7-29.6 34.5-46.1 10.5-12.5 36.8-39.5 46.9-48 3.3-2.8 6.9-5.9 8-7 1.2-1.1 6.2-5.2 11.1-9.1 47.4-37.3 108-70.7 167.5-92.2 16.4-5.9 50.5-15.9 61-17.9 1.4-.2 4.5-.9 7-1.4 5.9-1.4 7.1-1.6 11.1-2.3 1.9-.3 4.3-.7 5.4-1 1.1-.2 4-.7 6.5-1.1 2.5-.4 5.2-.9 6-1 .8-.1 4-.6 7-1 3-.3 6.6-.8 8-1 1.4-.2 5.1-.6 8.3-.9 3.1-.3 8.1-.9 11-1.2 12.5-1.3 54.1-1.9 70.2-1 7.8.5 21.1 1.6 25.5 2.1 1.9.3 5.8.7 8.5 1 2.8.3 7.9 1 11.5 1.5 3.6.5 8.3 1.2 10.5 1.5 2.2.3 6.3.9 9 1.5 2.8.5 6.4 1.1 8 1.4 3.8.5 20.9 4.2 29.5 6.3 3.6.8 7.6 1.7 8.9 2 1.4.2 2.8.6 3.3.9.4.3 1.6.7 2.5.9 1 .2 5.9 1.6 10.8 3 5 1.5 10.4 3.1 12 3.5 13.9 3.6 47.1 17.2 71 29 26 12.8 42.1 22 57.3 32.6 3.5 2.4 6.5 4.4 6.7 4.4.3 0 1.3.6 2.2 1.4 1 .8 6.5 4.9 12.3 9.2 10 7.4 22.1 16.9 28.5 22.5 20 17.5 32.3 29.3 49 47.4 8.3 9 13 14.4 26 30 9.5 11.4 27.7 36.4 39.1 53.7 6.8 10.2 12.4 18.9 12.4 19.2 0 .3 1.4 2.5 3.1 5l3 4.6 6.2-3.4c3.4-1.8 16.6-8.9 29.2-15.8 12.7-6.9 27.1-14.7 32-17.3 5-2.7 12.8-6.9 17.5-9.5 4.7-2.6 12.6-6.9 17.5-9.5 5-2.6 11-5.9 13.5-7.3 2.5-1.3 7.9-4.3 12-6.5s10-5.5 13.1-7.2c3.1-1.8 6.5-3.6 7.5-3.9 1.1-.4 3-1.5 4.3-2.5l2.3-1.8-3.6-12.9c-1.9-7.1-5.4-18.5-7.6-25.4-8.5-26.1-16.6-57.2-20.4-78.5-2.5-13.3-4.1-24-5.2-34-.3-2.8-.7-6.4-.9-8-2.7-19-2.7-80.4-.1-96.5.3-1.4.7-5 1.1-8 .3-3 .8-7 1-8.7.3-1.8.7-4.8 1-6.5.2-1.8.7-4.4 1-5.8.3-1.4.7-3.9.9-5.5 1.6-12.5 10.5-47.1 17.7-69 3.2-9.9 6.3-18.9 6.8-20 .5-1.1 3.5-8.5 6.7-16.5 3.1-8 7-17.4 8.7-21 5.3-11.5 18.5-38.3 23-46.5 7-13 10.4-19.1 12-21.6.8-1.3 5.4-9.2 10.2-17.4 4.9-8.3 15-25.4 22.5-38 7.6-12.7 14.5-24.4 15.4-26 .9-1.7 2.4-4.2 3.4-5.7.9-1.5 4.1-6.9 7.1-12s5.8-9.5 6.3-9.6c.4-.2.8-.8.8-1.3 0-1 8-14.4 28-46.9 20.8-33.7 35-57 35-57.4 0-.5-13.7-8.6-14.5-8.6-.3 0-1.1-.5-1.8-1-1.3-1.1-32.8-20-33.4-20-.2 0-3.9-2.3-8.3-5-4.4-2.8-8.2-5-8.4-5-.3 0-5.1-2.8-10.8-6.3-5.7-3.5-15.7-9.5-22.3-13.4-6.6-3.9-20.3-12-30.5-18-10.2-6.1-29.7-17.7-43.5-25.8-13.7-8.1-27-16-29.5-17.5-18.1-11-54-32-54.8-32-.6 0-4.1 4.8-7.8 10.7z"/></svg>