<svg xmlns="http://www.w3.org/2000/svg" xmlns:xlink="http://www.w3.org/1999/xlink" width="50" height="63" viewBox="0 0 50 63"><defs><path id="85hka" d="M1258.62 406.204a4.2 4.2 0 0 0-5.94 0l-15.51 15.508-8.388-8.383a4.201 4.201 0 0 0-5.937 5.943l11.356 11.351a4.192 4.192 0 0 0 2.97 1.229c1.074 0 2.15-.411 2.97-1.231l18.48-18.477a4.202 4.202 0 0 0-.002-5.94zm6.61-10.543v42a6.297 6.297 0 0 1-6.298 6.298h-36.402c-3.48 0-6.3-2.819-6.3-6.298v-42c0-3.075 2.207-5.627 5.121-6.18.065 3.809 3.163 6.88 6.988 6.88h24.785c3.825 0 6.92-3.071 6.988-6.88a6.295 6.295 0 0 1 5.118 6.18zm-7.916-6.3c0 2.316-1.88 4.2-4.199 4.2h-24.778a4.2 4.2 0 0 1 0-8.4h3.743a4.191 4.191 0 0 1 4.127-3.501h9.035a4.192 4.192 0 0 1 4.128 3.5h3.741a4.201 4.201 0 0 1 4.203 4.2z"/></defs><g><g transform="translate(-1216 -381)"><use xlink:href="#85hka"/></g></g></svg>